<?xml version="1.0" standalone="no"?>
<!DOCTYPE svg PUBLIC "-//W3C//DTD SVG 20010904//EN"
 "http://www.w3.org/TR/2001/REC-SVG-20010904/DTD/svg10.dtd">
<svg version="1.0" xmlns="http://www.w3.org/2000/svg"
 width="2010.000000pt" height="2010.000000pt" viewBox="0 0 2010.000000 2010.000000"
 preserveAspectRatio="xMidYMid meet">

<g transform="translate(0.000000,2010.000000) scale(0.100000,-0.100000)"
fill="#000000" stroke="none">
<path d="M4804 18619 c-964 -587 -1873 -1387 -2589 -2279 -234 -292 -471 -624
-659 -924 l-106 -168 -1 -377 c0 -207 -1 -387 -1 -401 0 -14 0 -2183 1 -4821
l1 -4797 106 -168 c188 -300 425 -632 659 -924 467 -582 1053 -1161 1638
-1619 l118 -92 1637 1 1637 2 150 -27 c277 -48 375 -55 757 -55 235 0 365 -4
381 -11 38 -17 56 -59 76 -181 46 -264 124 -419 308 -609 164 -169 328 -270
549 -337 231 -71 401 -79 574 -29 47 14 114 33 149 42 125 32 307 140 438 260
200 182 320 407 369 689 18 106 35 150 63 165 13 8 163 12 443 15 442 3 504 8
772 62 69 14 289 16 1970 17 l1891 2 110 85 c312 241 556 459 906 809 364 365
562 588 844 951 118 152 119 155 127 219 4 36 7 2730 7 5986 l1 5920 -132 170
c-149 194 -281 353 -447 540 -148 167 -648 668 -816 816 -459 406 -948 769
-1439 1068 l-150 91 -5096 0 -5096 0 -150 -91z m5459 -2669 c162 -13 202 -17
297 -36 41 -7 118 -21 170 -29 226 -37 476 -109 735 -213 276 -110 315 -127
525 -230 236 -116 395 -211 600 -358 136 -97 173 -129 441 -380 306 -287 407
-396 591 -641 223 -295 460 -705 602 -1039 145 -342 276 -843 320 -1224 49
-421 39 -1019 -24 -1390 -37 -215 -43 -245 -81 -395 -95 -374 -193 -646 -335
-925 -157 -310 -364 -638 -543 -865 -136 -171 -401 -450 -571 -601 -189 -168
-307 -259 -605 -467 -116 -81 -175 -134 -191 -174 -11 -25 -14 -104 -14 -341
0 -339 -5 -377 -61 -459 -31 -45 -96 -101 -144 -126 -69 -34 -133 -39 -515
-35 -399 3 -414 5 -426 52 -3 12 -7 364 -10 782 -2 417 -6 905 -8 1084 -2 179
0 341 5 361 16 64 26 66 309 72 335 7 412 23 622 128 241 120 405 281 543 531
81 149 115 311 115 548 0 233 -40 391 -151 600 -151 283 -432 494 -774 582
-118 30 -143 33 -275 33 -196 0 -360 -39 -533 -126 -250 -126 -444 -321 -562
-564 -105 -215 -125 -318 -125 -633 0 -212 -6 -240 -57 -261 -26 -10 -297 -17
-555 -13 -93 2 -99 3 -130 31 l-33 29 3 179 c3 177 -7 327 -29 420 -37 158
-143 373 -242 490 -165 195 -410 347 -667 415 -116 31 -136 33 -275 32 -223
-1 -394 -46 -593 -158 -216 -121 -345 -248 -464 -456 -50 -87 -111 -246 -131
-340 -26 -124 -28 -355 -4 -486 52 -287 255 -598 497 -763 130 -89 262 -150
392 -183 116 -28 139 -30 381 -37 254 -6 259 -6 277 -29 11 -13 22 -42 25 -65
5 -33 4 -952 -3 -2063 -1 -61 -6 -123 -11 -138 -22 -55 -43 -58 -475 -54 -372
3 -394 4 -443 25 -126 51 -205 164 -232 334 -6 35 -11 180 -11 322 0 203 -3
264 -14 285 -22 42 -80 92 -211 182 -437 302 -738 572 -1091 978 -192 220
-435 609 -630 1006 -171 349 -274 659 -359 1086 -58 291 -76 481 -82 856 -8
499 26 848 118 1219 93 371 167 578 323 900 278 571 529 928 946 1345 530 531
993 823 1807 1141 352 137 855 240 1248 255 88 4 162 8 164 10 8 7 501 -6 634
-16z m-1912 -6035 c75 -38 155 -110 183 -163 21 -40 40 -175 32 -225 -15 -94
-107 -228 -187 -272 -52 -29 -59 -30 -174 -30 -105 0 -126 3 -167 24 -58 28
-104 78 -151 162 -46 82 -52 118 -37 226 13 100 37 150 99 206 52 47 80 64
148 93 81 34 156 28 254 -21z m3207 0 c70 -38 154 -112 177 -155 15 -29 35
-150 35 -214 0 -51 -48 -152 -106 -223 -87 -106 -279 -141 -420 -78 -69 30
-125 91 -175 191 -42 82 -42 83 -35 161 3 43 10 93 16 112 24 85 143 193 255
233 79 29 168 19 253 -27z m-1402 -1576 l29 -30 0 -632 c-1 -1206 -6 -1580
-20 -1607 -26 -50 -38 -51 -370 -48 -323 3 -344 6 -361 48 -8 21 -18 2202 -10
2234 4 15 21 35 39 46 30 19 51 20 348 20 l315 0 30 -31z m1737 -3175 c84 -22
127 -45 187 -104 62 -60 98 -135 109 -226 24 -201 -97 -371 -300 -419 -56 -13
-317 -15 -2084 -15 -2198 0 -2066 -3 -2190 54 -177 81 -254 330 -160 515 27
54 105 130 164 160 101 52 -5 50 2180 50 1820 1 2039 -1 2094 -15z m54 -1620
c102 -43 173 -109 216 -202 18 -39 22 -65 22 -157 0 -101 -3 -115 -29 -167
-49 -98 -147 -178 -256 -209 -36 -11 -439 -14 -2066 -15 -1111 0 -2047 2
-2079 7 -94 13 -197 69 -251 137 -64 82 -87 148 -87 252 0 190 110 323 301
366 45 9 501 12 2117 11 l2060 -2 52 -21z m-1804 -1592 c33 -34 29 -97 -12
-161 -41 -64 -86 -103 -164 -143 -57 -30 -70 -32 -162 -33 -89 0 -107 3 -159
28 -81 37 -135 84 -174 150 -38 62 -46 127 -20 153 26 26 65 29 374 29 291 -1
294 -1 317 -23z"/>
</g>
</svg>
